<svg width="165" height="165" viewBox="0 0 165 165" fill="none" xmlns="http://www.w3.org/2000/svg">
<circle cx="82.5" cy="82.5" r="80" stroke="black" stroke-width="5"/>
<path d="M48.6358 103.85L95.7103 115.587L93.0397 126.298L32.798 111.279L57.5648 11.9445L70.732 15.2275L48.6358 103.85Z" fill="black"/>
<path d="M79.3987 97.9073C82.4005 98.6558 85.2502 98.4 87.9476 97.1402C90.645 95.8803 92.4552 93.9162 93.3782 91.2477L101.338 93.2322C100.483 96.0143 98.8436 98.4559 96.4196 100.557C93.9955 102.658 91.0936 104.092 87.7137 104.86C84.3642 105.635 81.0217 105.607 77.6863 104.775C70.9852 103.104 66.2043 99.5452 63.3435 94.0975C60.5205 88.6271 60.0767 82.0107 62.0121 74.2483L62.3637 72.8384C63.5581 68.0475 65.4997 64.0066 68.1882 60.7155C70.8768 57.4244 74.1154 55.1562 77.9043 53.9108C81.7234 52.6729 85.8768 52.6135 90.3644 53.7324C95.883 55.1083 100.05 57.9024 102.864 62.1147C105.709 66.3345 106.595 71.1127 105.522 76.4491L97.5627 74.4646C98.1139 71.2203 97.5512 68.3103 95.8746 65.7344C94.2358 63.1357 91.8245 61.4395 88.6407 60.6457C84.3654 59.5797 80.6596 60.2983 77.5234 62.8015C74.425 65.2818 72.1501 69.4329 70.6986 75.2547L70.3017 76.8466C68.8879 82.5167 68.9667 87.1741 70.5379 90.8187C72.1091 94.4634 75.0627 96.8262 79.3987 97.9073Z" fill="black"/>
<path d="M124.126 55.7696L137.293 59.0526L119.756 129.391C117.386 138.897 112.666 145.619 105.597 149.557C98.574 153.507 90.3093 154.297 80.8035 151.926C70.9338 149.466 63.8766 145.025 59.6319 138.604C55.3873 132.183 54.399 124.425 56.667 115.328L69.766 118.594C68.3485 124.28 68.7892 129.1 71.0882 133.055C73.4327 137.021 77.5613 139.741 83.4741 141.215C88.8865 142.565 93.6781 141.948 97.8488 139.364C102.065 136.792 104.961 132.442 106.538 126.313L124.126 55.7696Z" fill="black"/>
</svg>
